<?xml version="1.0" standalone="no"?>
<!DOCTYPE svg PUBLIC "-//W3C//DTD SVG 20010904//EN"
 "http://www.w3.org/TR/2001/REC-SVG-20010904/DTD/svg10.dtd">
<svg version="1.0" xmlns="http://www.w3.org/2000/svg"
 width="300.000000pt" height="300.000000pt" viewBox="0 0 300.000000 300.000000"
 preserveAspectRatio="xMidYMid meet">
<metadata>
Created by potrace 1.10, written by Peter Selinger 2001-2011
</metadata>
<g transform="translate(0.000000,300.000000) scale(0.100000,-0.100000)"
fill="currentColor" stroke="none">
<path d="M1506 2458 c-9 -12 -16 -17 -16 -11 0 6 -14 14 -30 18 -42 9 -181 -5
-174 -17 4 -6 -2 -8 -15 -3 -15 4 -23 1 -27 -10 -5 -11 -10 -13 -19 -5 -18 15
-102 4 -195 -25 -41 -13 -101 -30 -132 -39 -31 -9 -70 -29 -86 -44 -16 -15
-40 -28 -53 -30 -31 -3 -85 -37 -82 -51 2 -6 0 -10 -5 -9 -16 5 -51 -23 -54
-44 -2 -16 -9 -22 -23 -21 -35 3 -73 -26 -154 -118 -60 -68 -81 -99 -81 -119
0 -18 -11 -39 -28 -57 -32 -32 -77 -152 -68 -181 4 -10 -1 -36 -10 -57 -19
-47 -24 -189 -6 -206 6 -7 12 -25 12 -40 0 -55 44 -139 73 -139 6 0 1 10 -10
22 -35 39 -38 54 -4 24 19 -19 29 -36 26 -46 -7 -23 16 -41 124 -95 87 -45 98
-48 175 -49 77 0 223 16 257 29 14 5 16 -1 12 -42 -4 -42 0 -55 28 -98 18 -27
40 -54 48 -59 8 -5 24 -19 35 -31 12 -12 47 -37 79 -55 57 -32 57 -32 159 -25
96 6 106 9 170 47 68 40 81 60 33 51 -14 -3 -22 -10 -18 -16 4 -6 0 -8 -9 -5
-8 4 -20 -2 -27 -14 -7 -12 -18 -17 -30 -13 -10 3 -24 -1 -31 -10 -20 -25 -28
-17 -20 19 11 52 49 94 110 124 46 23 66 27 123 25 38 -2 77 2 87 7 21 11 78
18 210 24 52 3 103 8 112 11 20 8 61 -12 53 -25 -8 -13 -59 -25 -200 -50 -124
-21 -200 -40 -272 -67 -37 -14 -43 -20 -43 -45 0 -65 65 -136 144 -158 l48
-13 63 -131 c35 -72 66 -139 70 -150 4 -15 12 -17 45 -12 21 3 50 10 65 16 30
11 29 21 -16 140 -16 41 -29 79 -29 83 1 4 -21 23 -47 41 -26 18 -64 54 -83
79 -40 53 -76 140 -60 145 5 2 10 8 10 13 0 14 -80 -29 -87 -47 -3 -8 -1 -26
5 -39 9 -20 9 -23 -3 -18 -14 5 -19 17 -16 36 2 10 -37 9 -44 -2 -3 -5 -1 -12
5 -16 6 -4 8 -11 5 -16 -3 -5 0 -6 8 -3 8 3 18 1 22 -5 7 -12 55 -15 55 -4 0
3 -8 15 -17 25 -13 15 -15 23 -6 36 14 22 39 22 35 0 -2 -10 1 -18 6 -18 8 0
13 -11 27 -62 2 -5 3 -12 4 -17 0 -5 11 -11 22 -14 15 -4 20 -11 16 -21 -4
-10 -1 -16 7 -16 18 0 77 -55 68 -65 -4 -4 -2 -5 5 -1 7 4 19 -4 29 -19 13
-20 14 -28 4 -40 -11 -13 -10 -14 6 -8 17 6 17 5 5 -10 -17 -21 -7 -51 15 -43
14 5 15 4 4 -9 -7 -8 -10 -20 -7 -27 2 -7 4 -15 4 -18 0 -3 5 -15 11 -27 16
-29 -5 -43 -26 -17 -13 17 -14 17 -8 1 3 -11 2 -16 -4 -12 -6 3 -10 15 -10 26
0 10 -4 19 -10 19 -5 0 -6 7 -3 17 4 9 2 14 -4 10 -12 -8 -56 80 -47 95 4 7 2
8 -4 4 -11 -6 -16 6 -13 27 0 4 -3 7 -9 7 -5 0 -10 6 -10 13 0 29 -93 108
-108 92 -3 -3 -19 7 -35 22 -17 16 -27 22 -23 16 4 -7 2 -13 -3 -13 -6 0 -11
5 -11 10 0 6 -11 20 -24 31 -15 13 -22 27 -19 37 4 10 2 13 -5 8 -17 -10 -15
16 3 40 8 10 15 15 15 11 0 -4 10 -2 22 4 30 16 159 49 153 39 -9 -14 109
-180 120 -169 3 4 -12 28 -34 53 -46 53 -64 82 -59 97 2 6 18 -11 35 -38 40
-60 151 -183 166 -183 6 0 -9 21 -34 48 -80 85 -166 198 -156 208 2 2 27 -26
55 -63 110 -147 198 -218 301 -244 23 -5 41 -12 39 -15 -9 -9 -133 28 -161 47
-19 14 -32 17 -44 11 -14 -8 -9 -13 26 -32 24 -12 62 -25 84 -30 l42 -9 -46 3
c-26 2 -60 10 -78 19 -32 16 -61 17 -62 1 -1 -14 119 -43 179 -44 29 0 78 9
109 20 32 11 67 20 79 20 27 0 127 65 180 117 49 48 98 131 115 194 18 66 11
75 -47 70 -44 -4 -46 -5 -21 -12 16 -4 36 -5 45 -2 13 4 14 3 3 -5 -11 -8 -11
-10 0 -15 8 -4 -2 -4 -21 -2 -84 10 -184 13 -160 5 14 -4 54 -9 90 -9 36 -1
72 -6 80 -11 10 -7 -1 -9 -37 -4 -37 5 -58 3 -68 -6 -13 -11 -32 -11 -103 0
-86 12 -191 38 -162 39 8 1 64 -8 123 -20 60 -11 116 -19 125 -17 10 2 -36 14
-101 27 -82 16 -130 20 -160 15 l-42 -7 60 -19 c74 -22 225 -47 302 -50 45 -1
36 -3 -37 -8 l-95 -6 85 -2 c99 -3 147 -21 60 -23 -72 -2 -86 0 -145 13 -44
10 -47 12 -25 19 l25 7 -26 1 c-14 1 -63 13 -110 27 -46 14 -115 29 -154 33
l-70 8 65 3 c64 3 65 3 20 10 -34 5 -20 7 60 8 58 1 123 -2 145 -7 22 -5 60
-5 85 -1 l45 7 -56 2 c-72 1 -149 12 -149 20 0 6 129 -1 220 -13 25 -3 11 1
-30 9 -41 8 -93 19 -115 24 -36 8 -37 9 -10 10 17 0 46 -3 65 -8 20 -4 68 -4
108 1 57 8 76 7 89 -4 14 -11 12 -14 -23 -19 l-39 -6 45 -2 c38 -1 51 4 85 34
87 77 105 98 111 123 3 15 14 43 24 62 27 53 33 120 16 171 -9 24 -16 73 -16
109 0 76 -25 140 -64 165 -20 13 -26 26 -26 52 0 47 -26 99 -71 143 -20 19
-39 46 -44 58 -4 13 -29 48 -56 78 -27 30 -49 58 -49 63 0 12 -99 111 -111
111 -5 0 -37 22 -72 49 -101 79 -189 132 -217 130 -14 -1 -42 6 -63 15 -47 21
-143 39 -168 33 -11 -3 -22 -1 -25 5 -3 5 -17 7 -31 3 -14 -3 -22 -2 -19 3 6
10 -85 22 -160 22 -33 0 -46 -5 -58 -22z m99 3 c-16 -4 -40 -13 -53 -20 -22
-12 -42 -8 -42 9 0 12 26 18 80 18 39 0 41 -1 15 -7z m131 -27 c29 -8 64 -24
76 -35 21 -17 22 -20 6 -29 -36 -22 -49 -43 -43 -67 5 -21 3 -23 -14 -14 -55
30 -68 75 -26 91 14 5 25 11 25 12 0 2 -27 3 -60 3 l-60 0 24 -18 c14 -10 27
-30 31 -46 4 -19 17 -33 40 -44 38 -18 46 -46 19 -68 -21 -17 -50 -23 -104
-21 -25 2 -69 3 -98 5 l-52 2 0 37 c0 33 4 38 40 54 22 10 40 21 40 25 0 4
-11 17 -25 30 -39 38 -30 62 31 84 51 18 85 18 150 -1z m-245 -21 c13 -14 18
-23 12 -19 -20 11 -15 -4 12 -36 24 -28 25 -32 10 -48 -13 -14 -23 -16 -50
-10 -20 5 -33 4 -29 -1 3 -5 12 -9 20 -9 10 0 14 -12 14 -39 0 -22 3 -46 6
-55 10 -26 -25 -32 -42 -7 -8 11 -22 21 -31 21 -15 0 -15 -1 -2 -12 9 -7 23
-25 31 -39 15 -23 15 -29 2 -55 -9 -16 -29 -43 -45 -60 -21 -22 -36 -53 -48
-100 l-17 -69 -50 -6 c-27 -4 -57 -10 -66 -14 -15 -6 -18 -1 -18 29 0 19 8 51
17 70 14 30 14 42 5 75 -7 21 -9 46 -6 54 6 16 43 43 108 79 17 10 27 18 21
19 -5 1 1 5 15 9 21 7 22 8 5 9 -11 0 -36 -9 -55 -21 -40 -25 -60 -30 -60 -17
0 19 35 62 65 80 22 14 25 19 12 19 -28 0 -10 20 36 40 22 10 42 26 43 35 2
14 -1 13 -18 -4 -41 -45 -77 -3 -39 45 26 33 28 53 3 31 -10 -10 -29 -17 -43
-17 -20 -1 -21 -2 -8 -10 13 -7 15 -19 9 -55 -4 -26 -14 -54 -23 -63 -16 -15
-19 -14 -52 18 -20 19 -38 45 -42 57 -7 31 20 69 54 76 15 3 44 10 63 15 19 6
62 10 96 11 53 1 63 -2 85 -26z m412 10 c40 -6 51 -23 15 -23 -13 0 -32 -2
-43 -5 -12 -3 -31 5 -50 21 l-30 26 35 -6 c19 -4 52 -9 73 -13z m-705 -10 c-2
-5 -10 -20 -17 -35 l-13 -26 -55 19 c-40 14 -52 15 -44 5 9 -11 0 -20 -45 -45
-39 -22 -59 -29 -68 -22 -13 11 -34 10 -53 -2 -8 -5 -13 -3 -13 5 0 11 -2 11
-8 0 -5 -7 -26 -15 -48 -18 l-39 -6 45 31 c25 17 70 36 100 42 30 6 74 18 96
26 23 8 66 18 95 23 30 4 58 8 62 9 5 0 7 -2 5 -6z m842 -58 c49 -24 62 -48
33 -59 -13 -5 -26 2 -45 24 -16 16 -28 26 -28 21 0 -6 -12 -6 -30 -1 -44 12
-37 4 15 -19 39 -17 45 -24 45 -50 0 -28 -8 -36 -32 -32 -3 0 -3 -13 2 -29 6
-21 5 -30 -3 -30 -7 0 -2 -8 9 -18 49 -39 49 -74 -1 -106 l-25 -16 -11 45 c-6
25 -15 45 -19 45 -13 0 -29 48 -23 71 5 18 3 21 -11 16 -10 -4 -19 -7 -20 -7
-12 0 12 -69 30 -89 30 -33 32 -81 3 -107 -12 -10 -28 -32 -36 -47 -10 -21
-20 -28 -34 -24 -21 6 -47 -30 -70 -95 -14 -40 -29 -50 -29 -20 0 12 -3 13 -8
5 -6 -10 -23 -8 -72 7 -36 11 -77 22 -92 25 -34 7 -36 31 -9 92 22 47 46 64
76 53 26 -10 65 11 99 51 24 28 27 39 24 89 -4 95 39 136 136 127 45 -4 47 -3
25 9 -25 14 -101 19 -113 7 -16 -17 -36 -10 -36 12 0 30 35 55 76 55 17 0 45
7 60 15 32 16 49 14 114 -20z m66 -1 c32 -19 68 -44 79 -55 20 -20 20 -20 -20
-3 -22 9 -49 24 -60 34 -11 10 -36 27 -55 39 -19 11 -28 21 -19 21 8 0 42 -16
75 -36z m-955 -24 c22 -18 23 -21 7 -33 -14 -11 -11 -15 30 -30 76 -27 80 -32
60 -64 -10 -15 -23 -26 -30 -24 -7 2 -33 5 -58 7 l-45 4 44 -15 c67 -22 75
-32 46 -59 -24 -23 -25 -24 -11 -71 18 -57 6 -97 -28 -91 -12 2 -15 1 -8 -1
10 -3 13 -18 10 -48 -1 -24 0 -41 5 -38 4 2 7 -2 7 -10 0 -14 -40 -37 -65 -37
-9 0 -15 14 -18 38 l-4 37 -1 -42 c-1 -29 -7 -43 -16 -43 -7 0 -27 -3 -43 -6
-27 -5 -30 -2 -61 63 -37 77 -48 93 -80 111 -18 10 -22 10 -20 0 2 -8 -7 -13
-22 -13 -15 0 -38 -14 -61 -37 -40 -41 -76 -48 -123 -27 -20 9 -26 23 -35 73
-7 41 -8 73 -1 96 14 48 6 48 -14 0 -9 -22 -21 -41 -28 -42 -29 -3 -34 -4 -54
-16 -22 -12 -34 -7 -34 13 0 14 81 99 108 114 43 23 122 0 122 -36 0 -10 4
-11 19 -3 32 17 66 11 90 -14 21 -23 25 -23 56 -10 68 28 92 -1 140 -174 10
-34 22 -65 27 -68 15 -9 -1 71 -32 166 -25 77 -26 88 -13 113 7 15 18 27 23
27 5 0 12 11 16 25 3 14 14 29 23 34 8 5 12 13 8 17 -5 5 -12 2 -18 -6 -8 -13
-10 -13 -19 0 -5 8 -10 21 -10 28 0 6 -4 12 -9 12 -14 0 -19 -32 -8 -51 7 -11
3 -26 -14 -51 -21 -33 -28 -36 -84 -41 -37 -4 -64 -2 -70 5 -7 8 -5 9 5 4 8
-4 7 -1 -3 8 -11 8 -25 12 -33 9 -22 -8 -27 22 -10 56 18 34 19 41 8 41 -5 0
-16 -18 -25 -41 -9 -22 -21 -38 -26 -35 -6 4 -35 8 -65 9 -91 5 -86 21 24 76
50 26 105 40 169 44 33 3 38 -20 8 -34 -24 -11 -24 -12 -9 -39 9 -16 20 -26
24 -24 4 3 14 -8 22 -23 8 -15 15 -24 16 -20 0 5 -5 17 -10 28 -9 15 -7 19 7
19 13 1 11 5 -9 16 -44 23 -41 27 57 91 44 28 94 52 111 53 7 0 22 -9 35 -20z
m1031 -61 c15 -11 40 -37 56 -57 29 -40 52 -61 65 -62 5 0 -10 21 -32 47 -23
25 -39 48 -36 51 6 7 75 -42 109 -77 25 -26 29 -60 6 -46 -5 3 -4 -8 2 -25 13
-40 7 -45 -25 -20 -14 11 -34 20 -46 20 -29 0 -94 67 -88 91 3 12 0 19 -9 19
-8 0 -14 10 -15 23 -1 20 -2 19 -11 -6 -8 -22 -6 -33 9 -53 55 -77 56 -87 18
-153 -44 -74 -62 -97 -105 -129 -62 -47 -84 -92 -77 -159 5 -47 3 -54 -15 -64
-17 -9 -24 -8 -32 2 -6 8 -31 30 -55 48 l-43 35 5 55 c3 35 2 48 -3 36 -5 -11
-9 -32 -9 -47 -1 -31 -21 -37 -41 -13 -17 20 5 91 37 121 26 24 100 36 144 24
16 -5 29 -5 29 -1 0 11 -74 23 -94 15 -9 -3 -16 -2 -16 4 0 17 50 72 66 72 25
0 104 44 93 51 -8 5 -7 20 4 55 12 35 13 44 3 32 -12 -17 -14 -17 -30 0 -24
27 -20 61 8 72 13 5 27 13 31 19 3 7 0 8 -9 5 -24 -9 -19 13 7 31 26 18 58 13
99 -16z m-1445 -10 c-22 -11 -41 -18 -44 -16 -6 7 48 36 67 36 8 0 -2 -9 -23
-20z m938 -102 c41 6 85 -12 85 -35 0 -21 -76 -99 -87 -89 -4 4 1 21 11 37 15
27 16 30 1 30 -9 0 -13 -5 -10 -11 10 -16 -25 -49 -52 -49 -12 0 -23 4 -23 9
0 15 -62 33 -74 21 -7 -7 -4 -10 10 -10 10 0 28 -7 39 -16 20 -15 20 -15 -1
-52 -12 -20 -24 -54 -28 -74 -6 -34 -10 -38 -36 -38 -28 0 -30 3 -32 38 l-1
37 -4 -38 -4 -38 -52 3 c-39 2 -52 7 -50 18 7 67 18 94 55 137 22 26 47 63 55
81 20 47 61 63 122 47 26 -7 60 -10 76 -8z m-1094 -14 c-15 -28 -120 -128
-127 -121 -10 11 24 53 77 96 57 47 64 50 50 25z m1829 -42 c0 -15 12 -29 88
-113 41 -44 16 -51 -41 -10 -74 53 -88 71 -82 107 3 17 7 38 8 48 1 17 2 17
14 1 7 -10 13 -25 13 -33z m-52 -71 c23 -17 47 -39 54 -49 6 -10 17 -17 24
-14 6 2 21 -8 33 -23 19 -24 22 -40 21 -113 0 -47 1 -104 2 -126 2 -29 -1 -39
-10 -37 -8 1 -11 -2 -7 -7 3 -6 -4 -15 -16 -22 -19 -10 -21 -9 -16 5 6 14 3
16 -16 10 -108 -35 -105 -35 -127 -7 -11 14 -20 21 -20 16 0 -6 9 -22 21 -36
15 -20 18 -35 14 -60 -4 -20 -1 -47 8 -68 l15 -34 -2 65 -1 65 63 9 c92 13
119 2 172 -71 25 -34 50 -62 57 -62 20 -1 43 -43 43 -78 0 -18 -7 -48 -16 -67
-14 -29 -23 -35 -59 -40 -38 -6 -44 -11 -58 -47 -8 -21 -11 -37 -6 -34 18 12
9 -43 -12 -69 -19 -24 -26 -26 -105 -26 -54 0 -83 4 -79 10 3 6 23 11 43 11
30 2 32 3 10 6 l-27 4 16 35 c9 19 20 34 23 34 4 0 4 14 2 31 -5 31 -4 31 29
24 23 -5 31 -4 24 3 -5 6 -19 12 -30 14 -17 3 -85 88 -85 107 0 3 12 19 26 34
25 27 25 28 10 70 l-16 42 4 -35 c4 -41 -30 -102 -45 -78 -6 9 -9 5 -9 -13 0
-32 -13 -44 -64 -58 -51 -13 -59 -7 -40 31 12 23 16 60 17 130 0 90 -2 101
-23 123 -13 14 -29 25 -37 25 -20 0 -16 12 16 48 17 17 39 32 51 32 12 0 38
11 58 25 40 27 71 31 105 14 16 -9 14 -3 -10 23 -18 19 -33 37 -33 41 0 4 15
17 33 28 l32 20 -43 -6 -43 -7 5 48 c5 37 3 45 -6 36 -6 -6 -12 -38 -13 -69
-1 -32 -3 -63 -4 -70 0 -6 -21 -23 -45 -37 -46 -27 -72 -34 -61 -16 3 5 1 18
-4 27 -9 16 -10 16 -11 1 0 -9 -12 -31 -27 -49 -16 -18 -21 -29 -13 -24 10 6
10 2 -3 -12 -11 -12 -27 -19 -42 -17 -14 1 -25 -2 -25 -8 0 -6 7 -8 15 -4 8 3
15 1 15 -4 0 -13 -36 -13 -59 -1 -14 8 -18 24 -19 76 -2 73 -9 62 101 157 47
41 47 41 70 22 l22 -19 -22 25 c-20 23 -21 27 -7 56 15 32 63 62 100 63 12 1
40 -13 62 -29z m-1870 -33 c8 -10 1 -23 -28 -52 -21 -22 -39 -48 -40 -57 0
-11 -5 -15 -15 -12 -10 4 -15 20 -15 44 0 30 6 44 31 64 34 29 51 32 67 13z
m101 -26 c26 -36 26 -39 -1 -34 -26 4 -34 -1 -63 -36 l-20 -25 25 17 c13 9 36
17 51 17 31 0 65 -34 61 -61 -4 -23 2 -24 33 -3 15 10 34 14 48 10 23 -5 24
-9 20 -78 -2 -47 -8 -77 -17 -83 -10 -8 -11 -16 -5 -28 8 -14 4 -18 -31 -23
-63 -10 -48 -26 18 -18 56 6 59 5 77 -22 11 -16 18 -33 17 -37 -1 -5 22 -32
53 -62 l55 -54 -27 -20 c-16 -14 -42 -22 -72 -23 -40 -1 -42 -2 -11 -5 l34 -5
-24 -19 c-24 -19 -24 -19 22 0 26 11 61 30 78 42 28 21 32 22 85 9 l56 -13
-32 -14 c-18 -7 -38 -18 -45 -24 -9 -8 -11 -5 -7 13 4 22 4 22 -11 4 -17 -21
-22 -51 -7 -42 5 4 7 -3 4 -14 -10 -37 -42 -50 -123 -50 -70 0 -78 2 -103 28
-19 20 -27 39 -27 65 0 40 -10 47 -31 20 -7 -10 -9 -15 -4 -10 7 6 23 -26 42
-87 6 -17 2 -18 -37 -12 -57 9 -148 53 -154 74 -2 9 -7 33 -10 52 -9 51 -43
86 -82 82 -25 -2 -37 3 -53 24 -32 41 -24 129 10 108 12 -7 12 -5 1 9 -8 9
-14 41 -14 72 -1 56 -3 61 -26 47 -10 -7 -10 -15 -3 -36 6 -15 9 -41 7 -59 -3
-18 -5 -35 -5 -39 -2 -16 -39 -8 -47 10 -7 16 -15 116 -8 109 2 -2 8 -21 13
-43 l9 -39 1 53 c1 32 9 69 22 93 11 23 18 43 15 46 -2 3 -16 -17 -30 -44 -14
-26 -25 -44 -26 -40 0 4 12 31 26 59 16 32 29 47 33 39 4 -6 15 -9 24 -5 25 9
44 -38 29 -71 -11 -23 -10 -25 7 -16 16 9 24 2 60 -51 39 -58 40 -62 25 -80
-11 -12 -31 -18 -58 -18 -30 0 -37 -3 -26 -10 8 -5 26 -10 40 -10 17 0 32 -11
47 -34 21 -32 75 -66 106 -66 33 0 28 -23 -13 -65 l-42 -43 36 12 c20 6 39 19
42 28 8 26 34 37 100 44 81 8 97 16 49 24 -22 4 -49 11 -59 15 -14 6 -17 5
-12 -3 19 -31 -67 -5 -91 27 -6 9 -15 16 -20 16 -4 1 -19 6 -33 14 l-25 12 25
-20 c13 -11 29 -19 34 -18 4 1 11 -4 13 -10 7 -20 -21 -15 -58 10 -45 30 -48
57 -10 99 30 32 32 32 46 14 13 -17 14 -15 12 25 l-2 44 40 -3 c37 -2 39 -1
21 13 -11 8 -26 16 -33 16 -7 1 -17 3 -23 4 -5 1 -14 3 -20 4 -5 0 -17 17 -26
36 -9 19 -20 35 -25 35 -10 0 9 -48 29 -72 19 -22 7 -80 -16 -76 -13 3 -33 26
-98 115 -24 34 -2 93 57 148 27 25 53 45 58 45 5 0 19 -13 30 -29z m304 -32
c26 -12 62 -77 72 -131 6 -30 3 -36 -20 -46 -40 -18 -52 -15 -58 17 -3 15 -18
43 -33 60 -21 25 -32 31 -50 27 -13 -4 -24 -4 -24 -1 0 18 25 48 53 65 38 23
31 22 60 9z m1683 -45 c45 -48 59 -78 51 -111 -3 -11 -5 -7 -6 12 -2 35 -21
61 -73 100 -21 15 -35 31 -32 36 8 14 13 12 60 -37z m-35 -14 c10 -6 19 -21
19 -33 0 -15 3 -18 9 -9 6 11 10 11 18 0 16 -19 46 -127 39 -143 -3 -8 14 -32
40 -57 l45 -43 -3 -65 c-2 -48 -7 -66 -18 -68 -16 -3 -98 72 -143 131 -15 20
-31 36 -35 36 -22 -4 -23 4 -3 25 16 17 24 40 26 69 3 41 1 44 -17 39 -19 -5
-21 -2 -15 34 4 21 7 51 7 67 0 30 3 32 31 17z m-927 -46 c88 -22 136 -42 172
-72 17 -15 57 -45 89 -67 95 -66 101 -72 89 -85 -7 -7 -30 -13 -52 -13 -22 -1
-38 -5 -35 -9 9 -15 -9 -8 -45 19 l-37 27 28 -30 c36 -40 34 -52 -4 -20 -43
36 -160 90 -250 115 -145 40 -332 19 -409 -45 -36 -31 -37 -44 -5 -82 17 -20
37 -31 67 -36 43 -7 130 -49 150 -73 22 -27 -4 -27 -52 0 -50 28 -122 35 -165
17 -12 -5 7 -6 50 -3 47 3 65 1 56 -5 -10 -8 -6 -11 18 -17 35 -7 45 -19 37
-41 -5 -12 -15 -8 -51 22 l-45 37 -81 -18 c-93 -20 -129 -16 -211 26 -60 30
-98 81 -98 131 0 42 49 97 115 128 35 17 68 30 73 30 6 0 64 16 129 36 65 20
145 40 178 44 77 11 212 4 289 -16z m-775 -10 c37 -47 37 -85 -1 -137 -36 -50
-57 -59 -59 -24 -7 157 -3 187 26 187 7 0 23 -12 34 -26z m1858 -161 c14 -24
23 -47 19 -50 -3 -3 -10 5 -15 18 -5 13 -21 35 -35 48 -29 27 -38 64 -10 41 8
-8 27 -33 41 -57z m-1309 26 c-9 -6 -6 -9 10 -9 13 0 21 4 18 8 -4 7 13 8 91
4 18 -1 38 -8 45 -15 7 -8 20 -12 29 -10 9 3 20 0 23 -6 4 -6 14 -11 23 -11 9
0 25 -8 36 -17 11 -10 17 -12 13 -5 -9 16 -6 15 33 -4 17 -8 36 -24 41 -35 9
-15 15 -17 30 -9 27 14 25 8 -6 -21 -18 -17 -23 -19 -18 -6 5 14 2 16 -12 10
-11 -3 -29 -13 -42 -21 -20 -13 -25 -13 -42 3 -11 10 -17 21 -15 25 11 17
-117 95 -141 86 -8 -3 -13 -2 -10 3 3 4 -18 9 -47 10 -29 1 -60 4 -70 7 -18 6
-77 -16 -77 -28 0 -5 3 -7 8 -7 25 4 62 -2 58 -10 -4 -5 18 -11 48 -13 30 -1
52 0 49 5 -2 4 -12 7 -21 7 -15 1 -15 2 2 12 16 9 22 6 38 -13 11 -15 16 -18
12 -6 -6 17 6 23 20 10 3 -4 13 -8 21 -9 35 -5 105 -72 105 -100 0 -18 -43
-26 -53 -9 -4 8 -17 15 -28 15 -16 0 -19 5 -14 19 3 11 0 23 -6 27 -7 4 -9 3
-6 -4 11 -16 -3 -42 -23 -42 -28 0 -34 19 -14 41 15 17 15 19 2 14 -37 -15
-27 -65 13 -65 12 0 19 -7 19 -20 0 -23 -29 -27 -49 -7 -10 10 -11 9 -6 -4 5
-13 -1 -18 -25 -21 -24 -4 -30 -1 -28 11 2 9 8 16 15 16 6 0 15 3 19 8 4 4 0
7 -9 7 -9 0 -24 -11 -33 -25 -21 -32 -29 -32 -44 5 -10 24 -18 30 -44 30 l-31
0 33 20 c17 11 32 23 32 28 0 12 -22 32 -34 32 -6 0 -3 -5 7 -11 24 -14 21
-27 -8 -41 -19 -8 -28 -8 -42 3 -16 13 -17 12 -4 -4 13 -16 11 -16 -22 -2 -19
8 -37 11 -41 8 -3 -4 -6 -1 -6 5 0 7 -1 15 -2 19 -2 3 24 16 57 29 33 13 52
23 42 23 -10 1 -20 7 -23 15 -5 12 -12 12 -49 -4 -39 -17 -43 -17 -41 -2 2 9
7 17 12 17 5 1 19 6 31 13 12 7 26 11 30 11 4 -1 15 0 23 4 33 12 46 15 78 14
21 0 28 -3 20 -8z m652 -34 c0 -8 -44 -23 -53 -18 -14 8 4 23 29 23 13 0 24
-2 24 -5z m143 -27 c23 -23 25 -40 19 -175 -3 -55 -42 -103 -83 -103 -37 0
-45 19 -25 59 18 35 22 131 5 131 -8 0 -9 -14 -5 -44 4 -28 3 -47 -4 -51 -6
-3 -8 -10 -5 -14 2 -5 -6 -24 -18 -42 -22 -33 -25 -34 -83 -30 -63 4 -77 13
-69 49 3 12 8 34 11 50 5 22 4 25 -6 15 -7 -7 -15 -37 -18 -68 -4 -48 -9 -59
-42 -89 -42 -38 -96 -52 -160 -41 -22 4 -47 13 -55 22 -18 17 -19 56 -4 85 9
17 8 19 -7 16 -14 -2 -18 -13 -18 -43 0 -22 3 -50 7 -61 6 -18 0 -27 -39 -53
-78 -51 -114 -39 -162 54 -21 39 -21 39 -22 11 0 -16 11 -41 25 -58 34 -40 33
-68 -2 -68 -42 0 -105 -20 -132 -41 -13 -11 -21 -19 -17 -19 16 0 -37 -80 -78
-118 -58 -53 -87 -55 -132 -6 -19 19 -34 43 -34 51 0 9 -3 14 -6 10 -10 -10 7
-47 38 -82 44 -50 35 -69 -21 -42 -57 27 -101 87 -101 139 0 52 26 102 48 93
38 -15 99 -33 130 -39 31 -5 34 -4 52 40 19 44 19 87 -2 100 -10 6 -38 -13
-38 -27 0 -14 28 -11 34 4 6 13 -2 -46 -10 -75 -6 -21 -28 -23 -74 -7 -30 11
-32 14 -27 46 4 20 13 46 22 59 19 30 86 73 125 81 29 5 30 5 31 -38 1 -25 3
-33 6 -19 2 14 6 35 8 47 5 23 49 51 92 59 14 3 37 13 51 24 38 27 113 45 122
30 5 -9 9 -8 12 2 3 7 38 22 77 32 70 18 72 18 86 0 8 -11 15 -29 15 -41 0
-12 5 -25 10 -28 16 -10 11 45 -6 62 -8 9 -12 19 -7 23 4 5 64 25 132 45 138
41 140 40 142 -30 0 -22 3 -34 6 -27 2 6 8 10 13 7 4 -3 2 16 -6 42 -11 35
-11 49 -2 60 20 25 51 37 108 44 30 3 59 7 63 8 4 0 18 -9 30 -21z m-1903 -5
c0 4 12 -3 26 -17 23 -21 26 -30 21 -66 -7 -54 -14 -60 -39 -30 -15 19 -18 33
-14 62 4 23 2 38 -4 38 -5 0 -10 8 -10 18 0 14 2 15 10 2 5 -8 10 -11 10 -7z
m1004 8 c5 -7 -73 -37 -83 -31 -2 1 -7 -4 -11 -10 -6 -9 -9 -9 -14 -1 -5 7 9
19 36 31 47 22 64 24 72 11z m-881 -146 c13 -4 30 -7 38 -8 24 -4 40 -18 50
-44 7 -20 6 -30 -7 -44 -20 -22 -80 -25 -105 -6 -30 22 -51 77 -45 113 7 33 7
33 26 14 11 -11 30 -22 43 -25z m1177 24 c0 -5 -2 -9 -4 -9 -2 0 -11 -3 -19
-6 -9 -3 -16 2 -19 14 -4 15 -1 18 18 14 13 -2 24 -8 24 -13z m-1263 -79 c33
-64 59 -80 127 -80 37 0 64 -8 112 -35 34 -19 72 -35 83 -35 36 0 23 -20 -25
-42 -68 -30 -140 -22 -189 20 -19 18 -45 32 -56 32 -33 0 -79 53 -75 87 2 15
1 22 -1 14 -8 -23 -33 45 -33 87 0 32 2 34 14 22 8 -8 28 -40 43 -70z m2421
-29 c3 -74 -8 -110 -47 -145 -12 -11 -21 -29 -21 -41 0 -12 -20 -42 -49 -70
-30 -29 -47 -54 -43 -63 4 -13 -21 -2 -57 25 -3 2 5 13 17 26 15 16 22 38 24
77 3 54 3 55 35 56 17 0 38 6 46 12 7 7 18 8 22 4 5 -4 5 -1 1 6 -4 7 -3 19 3
26 7 8 14 38 18 67 4 38 12 59 27 71 11 10 21 18 21 18 0 0 1 -31 3 -69z
m-1519 34 c38 -19 46 -42 19 -56 -19 -10 -25 -8 -50 22 -15 18 -28 37 -28 41
0 13 28 9 59 -7z m-74 -26 c5 -6 5 -13 -1 -19 -11 -11 -74 6 -74 20 0 20 53
19 75 -1z m-33 -37 c26 -17 27 -19 10 -33 -10 -9 -41 -21 -68 -28 -27 -7 -70
-23 -95 -36 -59 -29 -101 -38 -139 -30 -46 10 -36 25 18 25 66 0 132 32 132
65 0 50 87 73 142 37z m1244 -59 c23 -52 25 -62 14 -97 -6 -22 -26 -53 -42
-70 l-31 -30 -8 22 c-9 24 -60 50 -117 59 -29 5 -33 9 -28 29 3 13 1 26 -6 30
-6 4 -8 3 -5 -3 13 -21 -19 -41 -75 -47 -43 -5 -58 -3 -59 6 0 7 -4 3 -9 -8
-5 -13 -26 -28 -52 -37 -27 -10 -35 -16 -22 -16 12 -1 41 8 65 19 87 39 280
14 287 -37 6 -39 -89 -68 -130 -39 -28 20 -78 20 -142 1 -27 -8 -74 -15 -105
-15 -56 0 -57 1 -96 50 -40 50 -49 57 -59 42 -3 -5 6 -15 20 -23 60 -31 50
-74 -14 -65 -22 3 -47 -2 -73 -16 -32 -16 -51 -19 -91 -15 -56 7 -148 -9 -148
-25 0 -6 -3 -9 -6 -5 -4 3 -13 0 -21 -8 -8 -8 -20 -18 -26 -22 -7 -5 -29 -29
-50 -54 -28 -35 -34 -48 -25 -57 42 -42 -115 -48 -206 -8 -53 24 -77 44 -37
31 11 -3 29 -8 41 -10 13 -2 33 -11 46 -20 28 -18 45 -18 99 -1 l40 13 -55 -4
c-40 -3 -64 1 -89 14 -41 21 -52 43 -21 43 50 0 130 70 169 147 26 52 28 53
109 63 72 10 165 46 217 86 29 22 39 24 88 18 80 -9 122 2 169 44 l41 37 183
0 c161 0 185 2 201 18 9 9 21 17 26 17 4 0 20 -26 33 -57z m-1340 -48 c-46
-22 -65 -39 -66 -58 0 -5 6 -5 13 -1 7 5 5 -2 -4 -16 -9 -14 -20 -23 -24 -22
-4 2 -11 0 -14 -6 -3 -5 -21 -12 -39 -15 l-34 -7 19 33 c23 39 50 47 61 16 6
-16 11 -19 16 -10 5 7 1 18 -10 25 -27 20 -11 42 48 65 73 28 94 26 34 -4z
m-236 6 c0 -22 -49 -27 -76 -6 -18 13 -15 14 29 15 26 0 47 -4 47 -9z m-344
-36 c63 -42 99 -44 187 -11 47 18 76 23 110 19 26 -3 47 -9 47 -13 0 -3 -23
-25 -51 -48 -50 -41 -54 -42 -123 -42 -66 1 -116 17 -99 33 3 4 1 7 -5 7 -5 0
-13 -6 -15 -12 -4 -8 -6 -7 -6 4 -1 10 -13 19 -31 23 -31 7 -90 50 -90 66 0
17 23 9 76 -26z m604 -24 c-8 -30 -16 -41 -30 -41 -30 0 -26 44 7 69 14 12 28
19 30 17 2 -2 -1 -22 -7 -45z m-165 7 c-16 -4 -41 -4 -55 0 -22 6 -19 7 20 12
54 7 76 -1 35 -12z m-15 -28 c0 -23 -41 -50 -77 -52 -52 -2 -56 -2 -70 -11
-27 -17 -11 12 22 42 29 25 45 31 80 31 25 0 45 -4 45 -10z m1264 -99 c11 -17
-53 -28 -88 -15 -28 11 -6 24 39 24 24 0 46 -4 49 -9z m-84 -92 c30 1 84 -13
160 -40 160 -57 249 -80 290 -76 19 2 26 2 15 -1 -20 -4 -20 -4 0 -13 17 -6
15 -8 -10 -8 -36 -1 -163 34 -300 81 -121 43 -172 52 -172 32 0 -12 90 -55
180 -87 41 -14 104 -46 92 -47 -15 0 -174 64 -265 106 -52 25 -64 33 -40 29
46 -9 35 2 -21 20 -38 13 -39 14 -9 9 19 -3 55 -5 80 -5z m-159 -30 c16 -11
38 -22 50 -24 31 -6 62 -28 109 -79 62 -66 134 -91 315 -112 l60 -7 -40 -9
c-49 -11 -85 -5 -201 33 -83 27 -95 35 -153 94 -35 36 -68 65 -74 65 -10 0 94
-114 126 -138 23 -18 185 -72 214 -72 13 0 23 -4 23 -8 0 -15 -123 9 -179 34
-38 17 -87 56 -157 124 -57 55 -107 100 -113 100 -18 0 201 -211 240 -231 21
-10 73 -26 115 -34 94 -18 111 -30 29 -21 -80 9 -152 33 -195 64 -38 27 -207
200 -214 218 -4 11 2 24 12 24 2 0 17 -9 33 -21z m67 14 c-22 -5 111 -76 222
-117 47 -18 129 -43 182 -56 104 -26 121 -45 30 -34 -62 7 -295 97 -362 139
-22 14 -64 36 -93 49 l-52 23 45 0 c25 -1 37 -2 28 -4z m6 -171 c86 -88 114
-106 188 -122 32 -6 61 -16 64 -22 5 -8 -1 -9 -17 -4 -13 4 -43 12 -66 16 -64
14 -92 32 -163 106 -36 37 -80 82 -98 100 -28 27 -62 76 -62 90 0 2 19 -18 42
-44 23 -26 74 -80 112 -120z m586 158 c23 -7 22 -8 -10 -9 -19 0 -42 4 -50 9
-12 8 -10 10 10 9 14 -1 36 -5 50 -9z m-354 -41 c60 -23 156 -54 214 -70 73
-19 94 -27 70 -28 -49 -1 -148 22 -189 43 -18 10 -57 25 -85 33 -52 16 -126
50 -126 58 0 7 -1 8 116 -36z m42 -124 c67 -22 60 -31 -10 -15 -65 16 -117 41
-143 70 -18 20 -14 20 40 -7 33 -17 84 -38 113 -48z m177 19 c28 -3 57 -11 65
-16 22 -14 -66 -2 -120 17 -25 8 -34 13 -20 11 14 -3 48 -8 75 -12z"/>
<path d="M2448 1549 c-22 -12 -24 -33 -3 -25 11 4 15 -1 15 -17 0 -18 2 -19
10 -7 11 18 13 60 3 60 -5 0 -16 -5 -25 -11z"/>
<path d="M2504 1391 c32 -33 46 -55 46 -74 0 -18 4 -26 11 -21 6 3 8 16 5 29
-4 17 0 25 20 34 15 6 24 14 21 17 -3 3 -14 1 -26 -5 -24 -13 -37 2 -16 19 8
7 15 18 15 24 0 6 -7 3 -14 -6 -18 -24 -42 -23 -60 4 -9 12 -23 23 -32 24 -10
2 2 -16 30 -45z"/>
<path d="M1315 1750 c3 -5 17 -10 31 -10 13 0 24 5 24 10 0 6 -14 10 -31 10
-17 0 -28 -4 -24 -10z"/>
<path d="M1087 1674 c-3 -3 -23 -12 -44 -19 -36 -13 -36 -14 -10 -15 16 0 40
9 54 20 14 11 21 20 16 20 -5 0 -12 -3 -16 -6z"/>
<path d="M860 1604 c0 -20 36 -67 61 -80 40 -20 134 -31 143 -15 5 7 -6 12
-33 13 -23 1 -49 2 -58 2 -21 1 -33 9 -79 53 -19 17 -34 29 -34 27z"/>
<path d="M1734 875 c21 -50 59 -97 117 -147 46 -39 104 -63 79 -33 -10 12 -10
15 1 15 7 0 -5 18 -26 40 -21 22 -44 40 -49 40 -5 0 5 -16 24 -35 19 -19 29
-35 23 -35 -10 0 -76 67 -147 150 l-38 45 16 -40z m171 -162 c6 3 12 -1 12 -9
0 -7 -5 -10 -11 -7 -30 17 -108 88 -128 115 -11 17 9 0 47 -36 37 -37 73 -65
80 -63z"/>
</g>
</svg>
